<?xml version="1.0" encoding="UTF-8"?>
<svg id="vlpa" version="1.1" width="1914px" height="297.57px" viewBox="0 0 1113.1 297.57" xmlns="http://www.w3.org/2000/svg">
    <title>Vulkan API logo</title>
    <desc>A low-overhead graphics API from Khronos Group</desc>
    <g fill="#ac162c">
        <path d="m622.05 293.39h-40.6v-130c13 7.22 30.1 20.5 40.6 33.3z"/>
        <g>
            <path d="m280.05 293.39h-50.6l-66-204h46l45.4 143h0.57l46-143h46.3z"/>
            <path d="m484.05 293.39h-38.6v-20.6c-2.218 0.332-2.675 3.893-4.446 5.291-5.764 7.76-14.189 13.219-23.366 16.071-11.679 3.922-24.359 3.54-36.332 1.275-11.886-2.331-23.22-9.46-28.716-20.513-5.735-11.137-6.781-23.952-7.135-36.274-0.035-31.007-5e-3 -62.014-0.015-93.02h40.6c0.023 28.734-0.046 57.469 0.035 86.203 0.341 8.996 1.315 18.644 6.835 26.108 5.473 6.824 14.961 7.883 23.134 7.235 8.616-0.502 17.559-4.467 21.759-12.372 5.544-10.319 5.713-22.407 5.687-33.842v-73.292h40.6v148l-0.03-0.203z"/>
        </g>
        <g>
            <polygon points="629.05 204.39 629.05 198.39 680.05 145.39 728.05 145.39 672.05 200.39 734.05 293.39 685.05 293.39"/>
            <path d="m742.05 191.39c0.486-10.639 4.031-21.361 11.412-29.228 10.598-11.909 26.568-17.226 41.991-19.095 14.696-1.856 29.695-1.186 44.246 1.498 12.149 2.531 24.373 8.288 31.428 18.914 5.144 7.589 5.435 17.008 5.273 25.863 0.034 25.313-0.069 50.627 0.055 75.94 0.44 8.729 0.565 17.758 3.77 26.01 2.088 2.555 0.812 2.805-1.644 2.548h-38.231c-1.543-4.62-2.488-9.435-2.86-14.29-7.917 8.393-18.694 13.589-29.92 15.84-15.013 3.18-31.195 3.316-45.591-2.513-10.456-4.263-19.058-13.06-22.376-23.935-2.922-9.873-2.958-20.67-0.078-30.556 3.351-10.429 11.701-18.806 21.738-22.984 9.386-3.915 19.518-5.633 29.518-7.183 11.909-1.987 24.351-1.706 35.739-6.144 4.49-1.745 8.975-5.303 9.116-10.524 0.442-6.132-0.704-13.031-5.725-17.137-6.075-5.04-14.48-5.019-21.961-5.074-8.269 0.143-17.755 2.711-22.048 10.444-2.059 3.622-2.978 7.772-3.372 11.886h-40.6l0.084-0.195zm93.7 30c-5.192 4.353-12.251 5.183-18.676 6.416-10.145 1.549-20.907 2.011-30.049 7.152-5.878 3.317-9.378 10.009-9.005 16.722-0.316 6.522 3.102 13.29 9.217 15.992 7.435 3.337 15.94 3.233 23.884 2.297 10.052-1.12 19.144-8.276 22.354-17.909 3.104-9.169 2.104-18.962 2.285-28.476-4e-3 -0.677 9e-3 -1.754-0.01-2.194z"/>
            <path d="m898.05 145.39h38.6v20.6h0.85c13.365-22.284 36.291-24.56 45.1-24.56 7.312 0 30.388 0.051 43.098 16.73 9.33 12.601 10.73 28.925 10.86 44.1v90.9h-40.598v-83.4c0-30.451-11.466-36.3-26.01-36.3-23.213 0-31.43 14.094-31.43 42.26v77.4h-40.6v-148z"/>
        </g>
        <path d="m510.05 120.39v173h40.6v-151c-13-7.98-26.6-15.5-40.6-22.4z"/>
        <path d="m96.052 127.39c23.5-68.9 164-94.2 314-56.4 90 22.6 163 66.5 212 110-21.8-57.6-127-140-273-168-164-31.8-327-3.85-347 69.1-14.5 52.7 49.2 114 148 157-44.2-35.8-65.8-76.1-53.6-112z"/>
        <path d="m622.05 156.39v-66.6h-40.6v20.2c17.3 15.5 31 31.2 40.6 46.4z"/>
        <path d="m1113 271.39c0 12.3-9.63 21.9-22.2 21.9-12.4 0-22.3-9.63-22.3-21.9 0-12 9.89-21.6 22.3-21.6 12.5 0 22.2 9.63 22.2 21.6zm-38.9 0c0 9.63 7.12 17.3 16.9 17.3 9.49 0 16.5-7.65 16.5-17.1 0-9.63-6.99-17.4-16.6-17.4-9.62 0.01-16.7 7.79-16.7 17.3zm13.3 11.3h-5.01v-21.6c1.98-0.4 4.75-0.66 8.31-0.66 4.09 0 5.93 0.66 7.52 1.58 1.19 0.92 2.11 2.64 2.11 4.75 0 2.37-1.85 4.22-4.48 5.01v0.26c2.11 0.79 3.3 2.37 3.96 5.27 0.66 3.3 1.05 4.62 1.58 5.41h-5.41c-0.66-0.79-1.05-2.77-1.71-5.27-0.4-2.37-1.71-3.43-4.48-3.43h-2.37v8.71zm0.14-12.3h2.37c2.77 0 5.01-0.92 5.01-3.17 0-1.98-1.45-3.3-4.62-3.3-1.32 0-2.24 0.13-2.77 0.26v6.21z"/>
    </g>
</svg>
